<?xml version="1.0" standalone="no"?>
<!DOCTYPE svg PUBLIC "-//W3C//DTD SVG 20010904//EN"
 "http://www.w3.org/TR/2001/REC-SVG-20010904/DTD/svg10.dtd">
<svg version="1.0" xmlns="http://www.w3.org/2000/svg"
 width="1707.000000pt" height="1707.000000pt" viewBox="0 0 1707.000000 1707.000000"
 preserveAspectRatio="xMidYMid meet">
<metadata>
Created by potrace 1.11, written by Peter Selinger 2001-2013
</metadata>
<g transform="translate(0.000000,1707.000000) scale(0.100000,-0.100000)"
fill="#000000" stroke="none">
<path d="M12790 15309 c-19 -4 -51 -10 -70 -13 -106 -16 -289 -94 -415 -176
-79 -52 -192 -143 -208 -167 -4 -7 -16 -17 -26 -22 -15 -8 -177 -37 -256 -46
-59 -6 -361 -71 -420 -90 -22 -7 -87 -27 -145 -45 -201 -62 -509 -194 -695
-298 -235 -131 -514 -315 -659 -433 -6 -5 -45 -37 -86 -70 -611 -500 -1130
-1139 -1593 -1964 -105 -186 -407 -800 -407 -826 0 -5 -2 -9 -4 -9 -1 0 -66
37 -142 81 -152 89 -438 232 -606 303 -114 48 -344 134 -393 146 -16 5 -75 22
-130 38 -89 27 -203 58 -245 67 -8 2 -58 13 -110 24 -167 37 -405 75 -535 86
-95 8 -184 15 -265 20 -84 6 -495 6 -580 1 -105 -7 -235 -17 -260 -21 -14 -2
-50 -7 -80 -10 -30 -4 -82 -10 -115 -15 -33 -5 -78 -12 -100 -15 -168 -26
-476 -100 -670 -162 -60 -19 -114 -36 -120 -37 -24 -5 -312 -117 -388 -150
-31 -14 -60 -26 -65 -27 -9 -2 -371 -186 -392 -199 -8 -5 -62 -37 -120 -71
-146 -87 -256 -159 -385 -253 -97 -70 -251 -190 -265 -206 -3 -3 -29 -25 -58
-49 -123 -101 -353 -326 -477 -466 -38 -43 -80 -89 -92 -103 -46 -50 -191
-238 -275 -355 -224 -315 -420 -671 -561 -1023 -77 -191 -154 -414 -172 -495
-2 -9 -12 -47 -23 -85 -23 -79 -62 -235 -68 -273 -3 -14 -13 -69 -24 -121 -10
-52 -21 -115 -25 -140 -3 -25 -8 -56 -10 -70 -5 -25 -9 -51 -19 -125 -3 -22
-8 -69 -11 -105 -3 -36 -8 -87 -10 -115 -6 -63 -7 -612 -1 -720 4 -83 16 -229
21 -255 2 -8 7 -44 11 -80 4 -36 9 -67 9 -70 1 -3 5 -27 9 -55 7 -42 53 -279
72 -365 3 -14 7 -36 10 -50 3 -14 9 -38 14 -55 6 -16 24 -79 41 -138 179 -637
484 -1228 912 -1766 55 -69 103 -128 106 -131 3 -3 40 -43 81 -90 204 -232
501 -504 755 -691 33 -24 62 -46 65 -49 3 -3 66 -46 140 -94 74 -49 147 -97
162 -108 15 -10 30 -18 34 -18 4 0 15 -6 23 -14 9 -7 48 -31 86 -51 39 -21 75
-41 80 -46 24 -18 416 -209 430 -209 3 0 24 -9 48 -19 305 -141 872 -299 1242
-346 28 -4 61 -8 75 -10 14 -2 54 -6 90 -10 36 -4 76 -8 90 -11 144 -23 809
-23 950 0 14 3 54 7 90 10 36 3 76 8 90 10 14 3 44 7 68 10 40 5 201 32 247
41 24 5 160 33 194 41 160 35 527 148 676 209 479 196 811 377 1158 633 40 29
83 61 96 70 53 38 246 196 279 229 15 15 31 8 77 -32 168 -148 373 -306 526
-407 114 -75 199 -128 203 -128 2 0 42 -23 90 -50 205 -118 532 -263 796 -353
122 -42 320 -103 361 -112 9 -2 52 -13 95 -24 134 -35 302 -69 539 -110 258
-45 937 -61 1135 -27 14 3 48 7 75 10 47 6 134 18 145 21 3 1 28 5 55 10 59 9
60 9 150 29 462 100 928 280 1340 518 129 74 293 176 312 193 6 5 41 30 78 55
306 207 676 540 980 881 55 62 58 66 157 188 548 679 944 1457 1204 2371 13
47 27 98 30 114 2 16 7 32 9 36 4 7 62 254 70 302 3 17 7 34 9 37 2 3 7 22 10
41 3 19 8 49 11 65 3 17 12 66 20 110 23 129 24 136 35 220 6 44 13 91 15 105
2 14 7 50 10 80 3 30 8 66 10 80 2 14 7 57 10 95 3 39 8 97 11 131 11 122 13
152 21 319 14 305 8 859 -11 1155 -6 84 -17 225 -21 260 -2 19 -7 67 -10 105
-3 39 -8 84 -10 100 -2 17 -11 91 -20 165 -9 74 -18 146 -21 160 -2 14 -8 52
-13 85 -6 33 -12 76 -15 95 -3 19 -8 49 -11 65 -3 17 -10 55 -15 85 -18 99
-21 115 -25 135 -2 11 -9 45 -14 75 -17 86 -18 89 -45 208 -154 662 -365 1259
-627 1771 -115 226 -194 369 -257 468 -47 73 -117 184 -128 204 -6 10 -18 27
-27 37 -10 10 -17 23 -17 29 0 6 -4 13 -8 15 -5 2 -24 26 -43 53 -75 110 -261
349 -308 396 -9 9 -38 43 -66 75 -135 159 -414 420 -620 581 -155 121 -542
373 -574 373 -18 0 -41 40 -71 123 -97 267 -339 494 -654 611 -119 45 -187 62
-330 85 -61 10 -259 10 -306 0z"/>
</g>
</svg>
